<mxfile host="app.diagrams.net" agent="Mozilla/5.0 (Windows NT 10.0; Win64; x64) AppleWebKit/537.36 (KHTML, like Gecko) Chrome/136.0.0.0 Safari/537.36 Edg/136.0.0.0" version="27.0.5">
  <diagram name="Page-1" id="ywXeCEuUMvo0R0b0Hzbd">
    <mxGraphModel dx="778" dy="468" grid="1" gridSize="10" guides="1" tooltips="1" connect="1" arrows="1" fold="1" page="1" pageScale="1" pageWidth="850" pageHeight="1100" math="0" shadow="0">
      <root>
        <mxCell id="0" />
        <mxCell id="1" parent="0" />
        <mxCell id="6hl5i3CJcBfOZ22kl-Z5-2" value="School Medical Management System" style="ellipse;whiteSpace=wrap;html=1;aspect=fixed;" parent="1" vertex="1">
          <mxGeometry x="350" y="330" width="80" height="80" as="geometry" />
        </mxCell>
        <mxCell id="6hl5i3CJcBfOZ22kl-Z5-3" value="Parent" style="rounded=0;whiteSpace=wrap;html=1;" parent="1" vertex="1">
          <mxGeometry x="40" y="210" width="120" height="60" as="geometry" />
        </mxCell>
        <mxCell id="6hl5i3CJcBfOZ22kl-Z5-8" value="" style="rounded=0;orthogonalLoop=1;jettySize=auto;html=1;entryX=0.246;entryY=0.037;entryDx=0;entryDy=0;entryPerimeter=0;" parent="1" source="6hl5i3CJcBfOZ22kl-Z5-3" target="6hl5i3CJcBfOZ22kl-Z5-2" edge="1">
          <mxGeometry relative="1" as="geometry">
            <mxPoint x="160" y="240" as="sourcePoint" />
            <mxPoint x="360" y="240" as="targetPoint" />
            <Array as="points">
              <mxPoint x="370" y="240" />
            </Array>
          </mxGeometry>
        </mxCell>
        <mxCell id="6hl5i3CJcBfOZ22kl-Z5-28" value="Login" style="edgeLabel;html=1;align=center;verticalAlign=middle;resizable=0;points=[];" parent="6hl5i3CJcBfOZ22kl-Z5-8" vertex="1" connectable="0">
          <mxGeometry x="-0.2318" relative="1" as="geometry">
            <mxPoint as="offset" />
          </mxGeometry>
        </mxCell>
        <mxCell id="6hl5i3CJcBfOZ22kl-Z5-9" value="" style="endArrow=classic;html=1;rounded=0;exitX=0;exitY=1;exitDx=0;exitDy=0;" parent="1" source="6hl5i3CJcBfOZ22kl-Z5-2" edge="1">
          <mxGeometry width="50" height="50" relative="1" as="geometry">
            <mxPoint x="140" y="300" as="sourcePoint" />
            <mxPoint x="140" y="280" as="targetPoint" />
            <Array as="points">
              <mxPoint x="140" y="400" />
            </Array>
          </mxGeometry>
        </mxCell>
        <mxCell id="6hl5i3CJcBfOZ22kl-Z5-10" value="Student information&amp;nbsp;" style="edgeLabel;html=1;align=center;verticalAlign=middle;resizable=0;points=[];" parent="6hl5i3CJcBfOZ22kl-Z5-9" vertex="1" connectable="0">
          <mxGeometry x="0.2181" y="-6" relative="1" as="geometry">
            <mxPoint x="46" as="offset" />
          </mxGeometry>
        </mxCell>
        <mxCell id="6hl5i3CJcBfOZ22kl-Z5-11" value="" style="endArrow=classic;html=1;rounded=0;" parent="1" edge="1">
          <mxGeometry width="50" height="50" relative="1" as="geometry">
            <mxPoint x="360" y="400" as="sourcePoint" />
            <mxPoint x="130" y="280" as="targetPoint" />
            <Array as="points">
              <mxPoint x="310" y="410" />
              <mxPoint x="250" y="410" />
              <mxPoint x="130" y="410" />
            </Array>
          </mxGeometry>
        </mxCell>
        <mxCell id="6hl5i3CJcBfOZ22kl-Z5-13" value="Status student" style="edgeLabel;html=1;align=center;verticalAlign=middle;resizable=0;points=[];" parent="6hl5i3CJcBfOZ22kl-Z5-11" vertex="1" connectable="0">
          <mxGeometry x="-0.1674" y="-5" relative="1" as="geometry">
            <mxPoint x="-3" as="offset" />
          </mxGeometry>
        </mxCell>
        <mxCell id="6hl5i3CJcBfOZ22kl-Z5-15" value="" style="endArrow=classic;html=1;rounded=0;exitX=0;exitY=1;exitDx=0;exitDy=0;" parent="1" source="6hl5i3CJcBfOZ22kl-Z5-2" edge="1">
          <mxGeometry width="50" height="50" relative="1" as="geometry">
            <mxPoint x="380" y="360" as="sourcePoint" />
            <mxPoint x="120" y="280" as="targetPoint" />
            <Array as="points">
              <mxPoint x="310" y="420" />
              <mxPoint x="120" y="420" />
            </Array>
          </mxGeometry>
        </mxCell>
        <mxCell id="6hl5i3CJcBfOZ22kl-Z5-16" value="View Home Page&amp;nbsp;" style="edgeLabel;html=1;align=center;verticalAlign=middle;resizable=0;points=[];" parent="6hl5i3CJcBfOZ22kl-Z5-15" vertex="1" connectable="0">
          <mxGeometry x="-0.2053" relative="1" as="geometry">
            <mxPoint as="offset" />
          </mxGeometry>
        </mxCell>
        <mxCell id="6hl5i3CJcBfOZ22kl-Z5-17" value="Nurse" style="rounded=0;whiteSpace=wrap;html=1;" parent="1" vertex="1">
          <mxGeometry x="610" y="210" width="120" height="60" as="geometry" />
        </mxCell>
        <mxCell id="6hl5i3CJcBfOZ22kl-Z5-18" value="" style="endArrow=classic;html=1;rounded=0;" parent="1" edge="1">
          <mxGeometry width="50" height="50" relative="1" as="geometry">
            <mxPoint x="390" y="330" as="sourcePoint" />
            <mxPoint x="610" y="220" as="targetPoint" />
            <Array as="points">
              <mxPoint x="390" y="220" />
            </Array>
          </mxGeometry>
        </mxCell>
        <mxCell id="6hl5i3CJcBfOZ22kl-Z5-19" value="View Home Page" style="edgeLabel;html=1;align=center;verticalAlign=middle;resizable=0;points=[];" parent="6hl5i3CJcBfOZ22kl-Z5-18" vertex="1" connectable="0">
          <mxGeometry x="-0.2533" y="-1" relative="1" as="geometry">
            <mxPoint x="87" y="-1" as="offset" />
          </mxGeometry>
        </mxCell>
        <mxCell id="6hl5i3CJcBfOZ22kl-Z5-20" value="" style="endArrow=classic;html=1;rounded=0;entryX=-0.011;entryY=0.367;entryDx=0;entryDy=0;entryPerimeter=0;" parent="1" target="6hl5i3CJcBfOZ22kl-Z5-17" edge="1">
          <mxGeometry width="50" height="50" relative="1" as="geometry">
            <mxPoint x="400" y="330" as="sourcePoint" />
            <mxPoint x="480" y="310" as="targetPoint" />
            <Array as="points">
              <mxPoint x="400" y="230" />
            </Array>
          </mxGeometry>
        </mxCell>
        <mxCell id="6hl5i3CJcBfOZ22kl-Z5-22" value="Log status student" style="edgeLabel;html=1;align=center;verticalAlign=middle;resizable=0;points=[];" parent="6hl5i3CJcBfOZ22kl-Z5-20" vertex="1" connectable="0">
          <mxGeometry x="0.3172" y="2" relative="1" as="geometry">
            <mxPoint x="-14" y="1" as="offset" />
          </mxGeometry>
        </mxCell>
        <mxCell id="6hl5i3CJcBfOZ22kl-Z5-23" value="Admin" style="rounded=0;whiteSpace=wrap;html=1;" parent="1" vertex="1">
          <mxGeometry x="40" y="630" width="120" height="60" as="geometry" />
        </mxCell>
        <mxCell id="6hl5i3CJcBfOZ22kl-Z5-29" value="" style="endArrow=classic;html=1;rounded=0;exitX=0.375;exitY=1;exitDx=0;exitDy=0;exitPerimeter=0;entryX=0.61;entryY=0.003;entryDx=0;entryDy=0;entryPerimeter=0;" parent="1" source="6hl5i3CJcBfOZ22kl-Z5-2" target="6hl5i3CJcBfOZ22kl-Z5-23" edge="1">
          <mxGeometry width="50" height="50" relative="1" as="geometry">
            <mxPoint x="340" y="470" as="sourcePoint" />
            <mxPoint x="110" y="620" as="targetPoint" />
            <Array as="points">
              <mxPoint x="380" y="560" />
              <mxPoint x="113" y="560" />
            </Array>
          </mxGeometry>
        </mxCell>
        <mxCell id="6hl5i3CJcBfOZ22kl-Z5-30" value="View Home Page" style="edgeLabel;html=1;align=center;verticalAlign=middle;resizable=0;points=[];" parent="6hl5i3CJcBfOZ22kl-Z5-29" vertex="1" connectable="0">
          <mxGeometry x="0.3558" y="-2" relative="1" as="geometry">
            <mxPoint as="offset" />
          </mxGeometry>
        </mxCell>
      </root>
    </mxGraphModel>
  </diagram>
</mxfile>
